<mxfile host="65bd71144e">
    <diagram id="f6VxqoJakM9W2AmKVOKL" name="Page-1">
        <mxGraphModel dx="2843" dy="2124" grid="1" gridSize="10" guides="1" tooltips="1" connect="1" arrows="1" fold="1" page="1" pageScale="1" pageWidth="850" pageHeight="1100" background="#ffffff" math="0" shadow="0">
            <root>
                <mxCell id="0"/>
                <mxCell id="1" parent="0"/>
                <mxCell id="2" value="User" style="rounded=0;whiteSpace=wrap;html=1;" vertex="1" parent="1">
                    <mxGeometry x="150" y="70" width="190" height="90" as="geometry"/>
                </mxCell>
                <mxCell id="7" value="&lt;u&gt;ID&lt;/u&gt;" style="ellipse;whiteSpace=wrap;html=1;" vertex="1" parent="1">
                    <mxGeometry x="40" y="-30" width="80" height="60" as="geometry"/>
                </mxCell>
                <mxCell id="9" value="name" style="ellipse;whiteSpace=wrap;html=1;" vertex="1" parent="1">
                    <mxGeometry x="160" y="-50" width="80" height="60" as="geometry"/>
                </mxCell>
                <mxCell id="10" value="role" style="ellipse;whiteSpace=wrap;html=1;" vertex="1" parent="1">
                    <mxGeometry x="-40" y="60" width="80" height="60" as="geometry"/>
                </mxCell>
                <mxCell id="11" value="password" style="ellipse;whiteSpace=wrap;html=1;" vertex="1" parent="1">
                    <mxGeometry x="-60" y="150" width="80" height="60" as="geometry"/>
                </mxCell>
                <mxCell id="12" value="Ticket" style="rounded=0;whiteSpace=wrap;html=1;" vertex="1" parent="1">
                    <mxGeometry x="780" y="100" width="190" height="90" as="geometry"/>
                </mxCell>
                <mxCell id="13" value="Attachment" style="rounded=0;whiteSpace=wrap;html=1;" vertex="1" parent="1">
                    <mxGeometry x="-50" y="560" width="190" height="90" as="geometry"/>
                </mxCell>
                <mxCell id="14" value="Department" style="rounded=0;whiteSpace=wrap;html=1;" vertex="1" parent="1">
                    <mxGeometry x="580" y="660" width="190" height="90" as="geometry"/>
                </mxCell>
                <mxCell id="15" value="Comment" style="rounded=0;whiteSpace=wrap;html=1;" vertex="1" parent="1">
                    <mxGeometry x="1060" y="480" width="190" height="90" as="geometry"/>
                </mxCell>
                <mxCell id="21" style="edgeStyle=none;html=1;exitX=0.5;exitY=1;exitDx=0;exitDy=0;endArrow=none;endFill=0;" edge="1" parent="1" source="19" target="9">
                    <mxGeometry relative="1" as="geometry"/>
                </mxCell>
                <mxCell id="19" value="first_name" style="ellipse;whiteSpace=wrap;html=1;" vertex="1" parent="1">
                    <mxGeometry x="70" y="-140" width="80" height="60" as="geometry"/>
                </mxCell>
                <mxCell id="20" value="last_name" style="ellipse;whiteSpace=wrap;html=1;" vertex="1" parent="1">
                    <mxGeometry x="200" y="-150" width="80" height="60" as="geometry"/>
                </mxCell>
                <mxCell id="26" style="edgeStyle=none;html=1;exitX=0;exitY=1;exitDx=0;exitDy=0;endArrow=none;endFill=0;entryX=0.595;entryY=0.007;entryDx=0;entryDy=0;entryPerimeter=0;" edge="1" parent="1" source="20" target="9">
                    <mxGeometry relative="1" as="geometry">
                        <mxPoint x="340" y="-76" as="sourcePoint"/>
                        <mxPoint x="386" y="-30" as="targetPoint"/>
                    </mxGeometry>
                </mxCell>
                <mxCell id="28" style="edgeStyle=none;html=1;exitX=0.97;exitY=0.653;exitDx=0;exitDy=0;endArrow=none;endFill=0;exitPerimeter=0;entryX=-0.006;entryY=0.378;entryDx=0;entryDy=0;entryPerimeter=0;" edge="1" parent="1" source="10" target="2">
                    <mxGeometry relative="1" as="geometry">
                        <mxPoint x="74" y="114" as="sourcePoint"/>
                        <mxPoint x="120" y="160" as="targetPoint"/>
                    </mxGeometry>
                </mxCell>
                <mxCell id="29" style="edgeStyle=none;html=1;exitX=0.5;exitY=1;exitDx=0;exitDy=0;endArrow=none;endFill=0;" edge="1" parent="1" source="9">
                    <mxGeometry relative="1" as="geometry">
                        <mxPoint x="230" y="10" as="sourcePoint"/>
                        <mxPoint x="232" y="70" as="targetPoint"/>
                    </mxGeometry>
                </mxCell>
                <mxCell id="30" style="edgeStyle=none;html=1;exitX=1;exitY=1;exitDx=0;exitDy=0;endArrow=none;endFill=0;entryX=0;entryY=0;entryDx=0;entryDy=0;" edge="1" parent="1" source="7" target="2">
                    <mxGeometry relative="1" as="geometry">
                        <mxPoint x="104" y="40" as="sourcePoint"/>
                        <mxPoint x="150" y="86" as="targetPoint"/>
                    </mxGeometry>
                </mxCell>
                <mxCell id="31" style="edgeStyle=none;html=1;exitX=0.96;exitY=0.327;exitDx=0;exitDy=0;endArrow=none;endFill=0;exitPerimeter=0;" edge="1" parent="1" source="11" target="2">
                    <mxGeometry relative="1" as="geometry">
                        <mxPoint x="470" y="50" as="sourcePoint"/>
                        <mxPoint x="516" y="96" as="targetPoint"/>
                    </mxGeometry>
                </mxCell>
                <mxCell id="33" value="status" style="ellipse;whiteSpace=wrap;html=1;" vertex="1" parent="1">
                    <mxGeometry x="940" y="-110" width="80" height="60" as="geometry"/>
                </mxCell>
                <mxCell id="34" value="priority" style="ellipse;whiteSpace=wrap;html=1;" vertex="1" parent="1">
                    <mxGeometry x="1030" y="-100" width="80" height="60" as="geometry"/>
                </mxCell>
                <mxCell id="35" value="&lt;u&gt;ID&lt;/u&gt;" style="ellipse;whiteSpace=wrap;html=1;" vertex="1" parent="1">
                    <mxGeometry x="840" y="-90" width="80" height="60" as="geometry"/>
                </mxCell>
                <mxCell id="36" value="createdAt" style="ellipse;whiteSpace=wrap;html=1;" vertex="1" parent="1">
                    <mxGeometry x="1140" y="20" width="80" height="60" as="geometry"/>
                </mxCell>
                <mxCell id="37" value="title" style="ellipse;whiteSpace=wrap;html=1;" vertex="1" parent="1">
                    <mxGeometry x="710" y="-100" width="80" height="60" as="geometry"/>
                </mxCell>
                <mxCell id="38" value="description" style="ellipse;whiteSpace=wrap;html=1;" vertex="1" parent="1">
                    <mxGeometry x="600" y="-70" width="80" height="60" as="geometry"/>
                </mxCell>
                <mxCell id="41" value="updatedAt" style="ellipse;whiteSpace=wrap;html=1;" vertex="1" parent="1">
                    <mxGeometry x="1130" y="105" width="80" height="60" as="geometry"/>
                </mxCell>
                <mxCell id="42" style="edgeStyle=none;html=1;exitX=0.5;exitY=0;exitDx=0;exitDy=0;endArrow=none;endFill=0;entryX=0.5;entryY=1;entryDx=0;entryDy=0;" edge="1" parent="1" source="12" target="35">
                    <mxGeometry relative="1" as="geometry">
                        <mxPoint x="750" y="52" as="sourcePoint"/>
                        <mxPoint x="883" y="20" as="targetPoint"/>
                    </mxGeometry>
                </mxCell>
                <mxCell id="43" style="edgeStyle=none;html=1;exitX=0.75;exitY=0;exitDx=0;exitDy=0;endArrow=none;endFill=0;entryX=0.395;entryY=1.013;entryDx=0;entryDy=0;entryPerimeter=0;" edge="1" parent="1" source="12" target="33">
                    <mxGeometry relative="1" as="geometry">
                        <mxPoint x="905" y="100" as="sourcePoint"/>
                        <mxPoint x="890" y="-20" as="targetPoint"/>
                    </mxGeometry>
                </mxCell>
                <mxCell id="44" style="edgeStyle=none;html=1;exitX=0.88;exitY=0;exitDx=0;exitDy=0;endArrow=none;endFill=0;entryX=0;entryY=1;entryDx=0;entryDy=0;exitPerimeter=0;" edge="1" parent="1" source="12" target="34">
                    <mxGeometry relative="1" as="geometry">
                        <mxPoint x="915" y="110" as="sourcePoint"/>
                        <mxPoint x="900" y="-10" as="targetPoint"/>
                    </mxGeometry>
                </mxCell>
                <mxCell id="45" style="edgeStyle=none;html=1;exitX=0.316;exitY=0.018;exitDx=0;exitDy=0;endArrow=none;endFill=0;entryX=0.725;entryY=1;entryDx=0;entryDy=0;entryPerimeter=0;exitPerimeter=0;" edge="1" parent="1" source="12" target="37">
                    <mxGeometry relative="1" as="geometry">
                        <mxPoint x="925" y="120" as="sourcePoint"/>
                        <mxPoint x="910" as="targetPoint"/>
                    </mxGeometry>
                </mxCell>
                <mxCell id="46" style="edgeStyle=none;html=1;exitX=0;exitY=0;exitDx=0;exitDy=0;endArrow=none;endFill=0;entryX=1;entryY=1;entryDx=0;entryDy=0;" edge="1" parent="1" source="12" target="38">
                    <mxGeometry relative="1" as="geometry">
                        <mxPoint x="935" y="130" as="sourcePoint"/>
                        <mxPoint x="920" y="10" as="targetPoint"/>
                    </mxGeometry>
                </mxCell>
                <mxCell id="47" style="edgeStyle=none;html=1;exitX=1;exitY=0.25;exitDx=0;exitDy=0;endArrow=none;endFill=0;entryX=0.05;entryY=0.72;entryDx=0;entryDy=0;entryPerimeter=0;" edge="1" parent="1" source="12" target="36">
                    <mxGeometry relative="1" as="geometry">
                        <mxPoint x="945" y="140" as="sourcePoint"/>
                        <mxPoint x="930" y="20" as="targetPoint"/>
                    </mxGeometry>
                </mxCell>
                <mxCell id="48" style="edgeStyle=none;html=1;exitX=1;exitY=0.5;exitDx=0;exitDy=0;endArrow=none;endFill=0;entryX=0;entryY=0.5;entryDx=0;entryDy=0;" edge="1" parent="1" source="12" target="41">
                    <mxGeometry relative="1" as="geometry">
                        <mxPoint x="955" y="150" as="sourcePoint"/>
                        <mxPoint x="940" y="30" as="targetPoint"/>
                    </mxGeometry>
                </mxCell>
                <mxCell id="52" value="body" style="ellipse;whiteSpace=wrap;html=1;" vertex="1" parent="1">
                    <mxGeometry x="1190" y="650" width="80" height="60" as="geometry"/>
                </mxCell>
                <mxCell id="53" value="&lt;u&gt;ID&lt;/u&gt;" style="ellipse;whiteSpace=wrap;html=1;" vertex="1" parent="1">
                    <mxGeometry x="1330" y="570" width="80" height="60" as="geometry"/>
                </mxCell>
                <mxCell id="56" style="edgeStyle=none;html=1;exitX=0.5;exitY=0;exitDx=0;exitDy=0;endArrow=none;endFill=0;entryX=0.678;entryY=1.013;entryDx=0;entryDy=0;entryPerimeter=0;" edge="1" parent="1" source="52" target="15">
                    <mxGeometry relative="1" as="geometry">
                        <mxPoint x="1087" y="650" as="sourcePoint"/>
                        <mxPoint x="1220" y="618" as="targetPoint"/>
                    </mxGeometry>
                </mxCell>
                <mxCell id="57" style="edgeStyle=none;html=1;exitX=0;exitY=0;exitDx=0;exitDy=0;endArrow=none;endFill=0;entryX=1;entryY=0.75;entryDx=0;entryDy=0;" edge="1" parent="1" source="53" target="15">
                    <mxGeometry relative="1" as="geometry">
                        <mxPoint x="1240" y="616" as="sourcePoint"/>
                        <mxPoint x="1373" y="584" as="targetPoint"/>
                    </mxGeometry>
                </mxCell>
                <mxCell id="58" value="&lt;u&gt;ID&lt;/u&gt;" style="ellipse;whiteSpace=wrap;html=1;" vertex="1" parent="1">
                    <mxGeometry x="520" y="820" width="80" height="60" as="geometry"/>
                </mxCell>
                <mxCell id="59" value="name" style="ellipse;whiteSpace=wrap;html=1;" vertex="1" parent="1">
                    <mxGeometry x="660" y="850" width="80" height="60" as="geometry"/>
                </mxCell>
                <mxCell id="60" value="description" style="ellipse;whiteSpace=wrap;html=1;" vertex="1" parent="1">
                    <mxGeometry x="790" y="810" width="80" height="60" as="geometry"/>
                </mxCell>
                <mxCell id="61" value="fileUrl" style="ellipse;whiteSpace=wrap;html=1;" vertex="1" parent="1">
                    <mxGeometry x="-80" y="780" width="80" height="60" as="geometry"/>
                </mxCell>
                <mxCell id="63" value="&lt;u&gt;ID&lt;/u&gt;" style="ellipse;whiteSpace=wrap;html=1;" vertex="1" parent="1">
                    <mxGeometry x="-220" y="700" width="80" height="60" as="geometry"/>
                </mxCell>
                <mxCell id="65" style="edgeStyle=none;html=1;endArrow=none;endFill=0;entryX=0.072;entryY=1.024;entryDx=0;entryDy=0;entryPerimeter=0;" edge="1" parent="1" source="58" target="14">
                    <mxGeometry relative="1" as="geometry">
                        <mxPoint x="440" y="810" as="sourcePoint"/>
                        <mxPoint x="466.90999999999985" y="714.7200000000003" as="targetPoint"/>
                    </mxGeometry>
                </mxCell>
                <mxCell id="66" style="edgeStyle=none;html=1;exitX=0.5;exitY=0;exitDx=0;exitDy=0;endArrow=none;endFill=0;entryX=0.623;entryY=1;entryDx=0;entryDy=0;entryPerimeter=0;" edge="1" parent="1" source="59" target="14">
                    <mxGeometry relative="1" as="geometry">
                        <mxPoint x="681" y="850" as="sourcePoint"/>
                        <mxPoint x="640" y="771" as="targetPoint"/>
                    </mxGeometry>
                </mxCell>
                <mxCell id="67" style="edgeStyle=none;html=1;exitX=0;exitY=0;exitDx=0;exitDy=0;endArrow=none;endFill=0;entryX=0.948;entryY=1;entryDx=0;entryDy=0;entryPerimeter=0;" edge="1" parent="1" source="60" target="14">
                    <mxGeometry relative="1" as="geometry">
                        <mxPoint x="790" y="839" as="sourcePoint"/>
                        <mxPoint x="749" y="760" as="targetPoint"/>
                    </mxGeometry>
                </mxCell>
                <mxCell id="68" style="edgeStyle=none;html=1;exitX=0.666;exitY=0.021;exitDx=0;exitDy=0;endArrow=none;endFill=0;exitPerimeter=0;entryX=0.211;entryY=1.004;entryDx=0;entryDy=0;entryPerimeter=0;" edge="1" parent="1" source="61" target="13">
                    <mxGeometry relative="1" as="geometry">
                        <mxPoint x="281" y="729" as="sourcePoint"/>
                        <mxPoint x="10" y="660" as="targetPoint"/>
                    </mxGeometry>
                </mxCell>
                <mxCell id="69" style="edgeStyle=none;html=1;exitX=1;exitY=0;exitDx=0;exitDy=0;endArrow=none;endFill=0;entryX=0;entryY=1;entryDx=0;entryDy=0;" edge="1" parent="1" source="63" target="13">
                    <mxGeometry relative="1" as="geometry">
                        <mxPoint x="-89" y="769.5" as="sourcePoint"/>
                        <mxPoint x="-130" y="690.5" as="targetPoint"/>
                    </mxGeometry>
                </mxCell>
                <mxCell id="79" value="Opens" style="rhombus;whiteSpace=wrap;html=1;" vertex="1" parent="1">
                    <mxGeometry x="510" y="80" width="80" height="80" as="geometry"/>
                </mxCell>
                <mxCell id="80" style="edgeStyle=none;html=1;exitX=0;exitY=0.5;exitDx=0;exitDy=0;endArrow=none;endFill=0;entryX=1;entryY=0.5;entryDx=0;entryDy=0;" edge="1" parent="1" source="79" target="2">
                    <mxGeometry relative="1" as="geometry">
                        <mxPoint x="491" y="165" as="sourcePoint"/>
                        <mxPoint x="379" y="46" as="targetPoint"/>
                    </mxGeometry>
                </mxCell>
                <mxCell id="81" style="edgeStyle=none;html=1;exitX=0;exitY=0.5;exitDx=0;exitDy=0;endArrow=none;endFill=0;entryX=1;entryY=0.5;entryDx=0;entryDy=0;" edge="1" parent="1" source="12" target="79">
                    <mxGeometry relative="1" as="geometry">
                        <mxPoint x="740" y="210" as="sourcePoint"/>
                        <mxPoint x="628" y="91" as="targetPoint"/>
                    </mxGeometry>
                </mxCell>
                <mxCell id="83" style="edgeStyle=none;html=1;exitX=-0.004;exitY=0.596;exitDx=0;exitDy=0;endArrow=none;endFill=0;entryX=0.938;entryY=0.593;entryDx=0;entryDy=0;entryPerimeter=0;exitPerimeter=0;" edge="1" parent="1" source="12" target="79">
                    <mxGeometry relative="1" as="geometry">
                        <mxPoint x="712" y="210" as="sourcePoint"/>
                        <mxPoint x="600" y="91" as="targetPoint"/>
                    </mxGeometry>
                </mxCell>
                <mxCell id="84" value="1" style="text;html=1;align=center;verticalAlign=middle;resizable=0;points=[];autosize=1;strokeColor=none;fillColor=none;" vertex="1" parent="1">
                    <mxGeometry x="335" y="78" width="30" height="30" as="geometry"/>
                </mxCell>
                <mxCell id="85" value="M" style="text;html=1;align=center;verticalAlign=middle;resizable=0;points=[];autosize=1;strokeColor=none;fillColor=none;" vertex="1" parent="1">
                    <mxGeometry x="755" y="118" width="30" height="30" as="geometry"/>
                </mxCell>
                <mxCell id="91" value="Assigned" style="rhombus;whiteSpace=wrap;html=1;" vertex="1" parent="1">
                    <mxGeometry x="480" y="190" width="80" height="80" as="geometry"/>
                </mxCell>
                <mxCell id="92" style="edgeStyle=none;html=1;exitX=0;exitY=0.5;exitDx=0;exitDy=0;endArrow=none;endFill=0;" edge="1" parent="1" source="91">
                    <mxGeometry relative="1" as="geometry">
                        <mxPoint x="406" y="327" as="sourcePoint"/>
                        <mxPoint x="330" y="160" as="targetPoint"/>
                    </mxGeometry>
                </mxCell>
                <mxCell id="93" style="edgeStyle=none;html=1;exitX=0;exitY=0.889;exitDx=0;exitDy=0;endArrow=none;endFill=0;entryX=1;entryY=0.5;entryDx=0;entryDy=0;exitPerimeter=0;" edge="1" parent="1" target="91" source="12">
                    <mxGeometry relative="1" as="geometry">
                        <mxPoint x="695" y="307" as="sourcePoint"/>
                        <mxPoint x="543" y="253" as="targetPoint"/>
                    </mxGeometry>
                </mxCell>
                <mxCell id="95" style="edgeStyle=none;html=1;exitX=0;exitY=1;exitDx=0;exitDy=0;endArrow=none;endFill=0;entryX=0.938;entryY=0.593;entryDx=0;entryDy=0;entryPerimeter=0;" edge="1" parent="1" target="91" source="12">
                    <mxGeometry relative="1" as="geometry">
                        <mxPoint x="694" y="316" as="sourcePoint"/>
                        <mxPoint x="515" y="253" as="targetPoint"/>
                    </mxGeometry>
                </mxCell>
                <mxCell id="96" value="1" style="text;html=1;align=center;verticalAlign=middle;resizable=0;points=[];autosize=1;strokeColor=none;fillColor=none;" vertex="1" parent="1">
                    <mxGeometry x="335" y="140" width="30" height="30" as="geometry"/>
                </mxCell>
                <mxCell id="97" value="M" style="text;html=1;align=center;verticalAlign=middle;resizable=0;points=[];autosize=1;strokeColor=none;fillColor=none;" vertex="1" parent="1">
                    <mxGeometry x="755" y="160" width="30" height="30" as="geometry"/>
                </mxCell>
                <mxCell id="100" value="Writes" style="rhombus;whiteSpace=wrap;html=1;" vertex="1" parent="1">
                    <mxGeometry x="550" y="395" width="80" height="80" as="geometry"/>
                </mxCell>
                <mxCell id="102" style="edgeStyle=none;html=1;exitX=0.007;exitY=0.377;exitDx=0;exitDy=0;endArrow=none;endFill=0;entryX=1;entryY=0.5;entryDx=0;entryDy=0;exitPerimeter=0;" edge="1" parent="1" target="100" source="15">
                    <mxGeometry relative="1" as="geometry">
                        <mxPoint x="1085" y="487" as="sourcePoint"/>
                        <mxPoint x="933" y="433" as="targetPoint"/>
                    </mxGeometry>
                </mxCell>
                <mxCell id="103" style="edgeStyle=none;html=1;exitX=0.11;exitY=0.402;exitDx=0;exitDy=0;endArrow=none;endFill=0;exitPerimeter=0;entryX=0.75;entryY=1;entryDx=0;entryDy=0;" edge="1" parent="1" source="100" target="2">
                    <mxGeometry relative="1" as="geometry">
                        <mxPoint x="815" y="532" as="sourcePoint"/>
                        <mxPoint x="300" y="280" as="targetPoint"/>
                    </mxGeometry>
                </mxCell>
                <mxCell id="104" style="edgeStyle=none;html=1;endArrow=none;endFill=0;" edge="1" parent="1">
                    <mxGeometry relative="1" as="geometry">
                        <mxPoint x="1060" y="518" as="sourcePoint"/>
                        <mxPoint x="625" y="443" as="targetPoint"/>
                    </mxGeometry>
                </mxCell>
                <mxCell id="105" value="1" style="text;html=1;align=center;verticalAlign=middle;resizable=0;points=[];autosize=1;strokeColor=none;fillColor=none;" vertex="1" parent="1">
                    <mxGeometry x="260" y="160" width="30" height="30" as="geometry"/>
                </mxCell>
                <mxCell id="106" value="M" style="text;html=1;align=center;verticalAlign=middle;resizable=0;points=[];autosize=1;strokeColor=none;fillColor=none;" vertex="1" parent="1">
                    <mxGeometry x="1020" y="480" width="30" height="30" as="geometry"/>
                </mxCell>
                <mxCell id="110" value="belongs" style="rhombus;whiteSpace=wrap;html=1;" vertex="1" parent="1">
                    <mxGeometry x="675" y="315" width="80" height="80" as="geometry"/>
                </mxCell>
                <mxCell id="111" style="edgeStyle=none;html=1;endArrow=none;endFill=0;entryX=0.574;entryY=-0.018;entryDx=0;entryDy=0;entryPerimeter=0;" edge="1" parent="1" source="110" target="14">
                    <mxGeometry relative="1" as="geometry">
                        <mxPoint x="666" y="577" as="sourcePoint"/>
                        <mxPoint x="690" y="650" as="targetPoint"/>
                    </mxGeometry>
                </mxCell>
                <mxCell id="112" style="edgeStyle=none;html=1;endArrow=none;endFill=0;exitX=0.822;exitY=0.994;exitDx=0;exitDy=0;exitPerimeter=0;entryX=0.792;entryY=0.312;entryDx=0;entryDy=0;entryPerimeter=0;" edge="1" parent="1" target="110" source="12">
                    <mxGeometry relative="1" as="geometry">
                        <mxPoint x="955" y="557" as="sourcePoint"/>
                        <mxPoint x="830" y="350" as="targetPoint"/>
                    </mxGeometry>
                </mxCell>
                <mxCell id="113" style="edgeStyle=none;html=1;exitX=0.75;exitY=1;exitDx=0;exitDy=0;endArrow=none;endFill=0;entryX=1;entryY=0;entryDx=0;entryDy=0;" edge="1" parent="1" target="110" source="12">
                    <mxGeometry relative="1" as="geometry">
                        <mxPoint x="954" y="566" as="sourcePoint"/>
                        <mxPoint x="760" y="530" as="targetPoint"/>
                    </mxGeometry>
                </mxCell>
                <mxCell id="114" value="1" style="text;html=1;align=center;verticalAlign=middle;resizable=0;points=[];autosize=1;strokeColor=none;fillColor=none;" vertex="1" parent="1">
                    <mxGeometry x="670" y="630" width="30" height="30" as="geometry"/>
                </mxCell>
                <mxCell id="115" value="M" style="text;html=1;align=center;verticalAlign=middle;resizable=0;points=[];autosize=1;strokeColor=none;fillColor=none;" vertex="1" parent="1">
                    <mxGeometry x="865" y="190" width="30" height="30" as="geometry"/>
                </mxCell>
                <mxCell id="123" value="Attaches" style="rhombus;whiteSpace=wrap;html=1;" vertex="1" parent="1">
                    <mxGeometry x="135" y="360" width="80" height="80" as="geometry"/>
                </mxCell>
                <mxCell id="124" style="edgeStyle=none;html=1;endArrow=none;endFill=0;entryX=0.176;entryY=0.96;entryDx=0;entryDy=0;entryPerimeter=0;exitX=0.361;exitY=0.108;exitDx=0;exitDy=0;exitPerimeter=0;" edge="1" parent="1" source="123" target="2">
                    <mxGeometry relative="1" as="geometry">
                        <mxPoint x="250" y="350" as="sourcePoint"/>
                        <mxPoint x="-45" y="407" as="targetPoint"/>
                    </mxGeometry>
                </mxCell>
                <mxCell id="126" style="edgeStyle=none;html=1;exitX=0.947;exitY=0;exitDx=0;exitDy=0;endArrow=none;endFill=0;entryX=0.361;entryY=0.853;entryDx=0;entryDy=0;entryPerimeter=0;exitPerimeter=0;" edge="1" parent="1" target="123" source="13">
                    <mxGeometry relative="1" as="geometry">
                        <mxPoint x="70" y="578.56" as="sourcePoint"/>
                        <mxPoint x="-18.960000000000036" y="510.00000000000006" as="targetPoint"/>
                    </mxGeometry>
                </mxCell>
                <mxCell id="132" style="edgeStyle=none;html=1;exitX=0;exitY=0.75;exitDx=0;exitDy=0;endArrow=none;endFill=0;entryX=0.87;entryY=0.636;entryDx=0;entryDy=0;entryPerimeter=0;" edge="1" parent="1" source="15" target="149">
                    <mxGeometry relative="1" as="geometry">
                        <mxPoint x="470" y="660" as="sourcePoint"/>
                        <mxPoint x="610" y="501" as="targetPoint"/>
                    </mxGeometry>
                </mxCell>
                <mxCell id="133" value="1" style="text;html=1;align=center;verticalAlign=middle;resizable=0;points=[];autosize=1;strokeColor=none;fillColor=none;" vertex="1" parent="1">
                    <mxGeometry x="160" y="160" width="30" height="30" as="geometry"/>
                </mxCell>
                <mxCell id="134" value="M" style="text;html=1;align=center;verticalAlign=middle;resizable=0;points=[];autosize=1;strokeColor=none;fillColor=none;" vertex="1" parent="1">
                    <mxGeometry x="105" y="530" width="30" height="30" as="geometry"/>
                </mxCell>
                <mxCell id="135" value="category" style="ellipse;whiteSpace=wrap;html=1;" vertex="1" parent="1">
                    <mxGeometry x="1115" y="-60" width="80" height="60" as="geometry"/>
                </mxCell>
                <mxCell id="136" style="edgeStyle=none;html=1;exitX=1;exitY=0;exitDx=0;exitDy=0;endArrow=none;endFill=0;entryX=0;entryY=1;entryDx=0;entryDy=0;" edge="1" parent="1" source="12" target="135">
                    <mxGeometry relative="1" as="geometry">
                        <mxPoint x="957" y="110" as="sourcePoint"/>
                        <mxPoint x="1052" y="-39" as="targetPoint"/>
                    </mxGeometry>
                </mxCell>
                <mxCell id="137" value="has" style="rhombus;whiteSpace=wrap;html=1;" vertex="1" parent="1">
                    <mxGeometry x="970" y="350" width="80" height="80" as="geometry"/>
                </mxCell>
                <mxCell id="138" style="edgeStyle=none;html=1;endArrow=none;endFill=0;entryX=0.053;entryY=0;entryDx=0;entryDy=0;entryPerimeter=0;" edge="1" parent="1" source="137" target="15">
                    <mxGeometry relative="1" as="geometry">
                        <mxPoint x="856" y="648" as="sourcePoint"/>
                        <mxPoint x="879" y="729" as="targetPoint"/>
                    </mxGeometry>
                </mxCell>
                <mxCell id="140" style="edgeStyle=none;html=1;endArrow=none;endFill=0;entryX=0.389;entryY=0.147;entryDx=0;entryDy=0;exitX=0.963;exitY=1.012;exitDx=0;exitDy=0;exitPerimeter=0;entryPerimeter=0;" edge="1" parent="1" target="137" source="12">
                    <mxGeometry relative="1" as="geometry">
                        <mxPoint x="1005" y="290" as="sourcePoint"/>
                        <mxPoint x="950" y="601" as="targetPoint"/>
                    </mxGeometry>
                </mxCell>
                <mxCell id="141" value="1" style="text;html=1;align=center;verticalAlign=middle;resizable=0;points=[];autosize=1;strokeColor=none;fillColor=none;" vertex="1" parent="1">
                    <mxGeometry x="980" y="180" width="30" height="30" as="geometry"/>
                </mxCell>
                <mxCell id="147" style="edgeStyle=none;html=1;endArrow=none;endFill=0;entryX=0.105;entryY=0;entryDx=0;entryDy=0;entryPerimeter=0;exitX=1;exitY=1;exitDx=0;exitDy=0;" edge="1" parent="1" source="137" target="15">
                    <mxGeometry relative="1" as="geometry">
                        <mxPoint x="1070" y="410" as="sourcePoint"/>
                        <mxPoint x="1140" y="461" as="targetPoint"/>
                    </mxGeometry>
                </mxCell>
                <mxCell id="148" value="M" style="text;html=1;align=center;verticalAlign=middle;resizable=0;points=[];autosize=1;strokeColor=none;fillColor=none;" vertex="1" parent="1">
                    <mxGeometry x="1075" y="450" width="30" height="30" as="geometry"/>
                </mxCell>
                <mxCell id="149" value="has" style="rhombus;whiteSpace=wrap;html=1;" vertex="1" parent="1">
                    <mxGeometry x="345" y="450" width="80" height="80" as="geometry"/>
                </mxCell>
                <mxCell id="150" style="edgeStyle=none;html=1;endArrow=none;endFill=0;entryX=0.5;entryY=1;entryDx=0;entryDy=0;exitX=1;exitY=0;exitDx=0;exitDy=0;" edge="1" parent="1" source="13" target="123">
                    <mxGeometry relative="1" as="geometry">
                        <mxPoint x="330" y="580" as="sourcePoint"/>
                        <mxPoint x="210" y="480" as="targetPoint"/>
                    </mxGeometry>
                </mxCell>
                <mxCell id="151" value="1" style="text;html=1;align=center;verticalAlign=middle;resizable=0;points=[];autosize=1;strokeColor=none;fillColor=none;" vertex="1" parent="1">
                    <mxGeometry x="1025" y="548" width="30" height="30" as="geometry"/>
                </mxCell>
                <mxCell id="152" style="edgeStyle=none;html=1;exitX=0.335;exitY=0.875;exitDx=0;exitDy=0;endArrow=none;endFill=0;entryX=1.018;entryY=0.365;entryDx=0;entryDy=0;entryPerimeter=0;exitPerimeter=0;" edge="1" parent="1" source="149" target="13">
                    <mxGeometry relative="1" as="geometry">
                        <mxPoint x="755" y="668.5" as="sourcePoint"/>
                        <mxPoint x="110" y="621.5" as="targetPoint"/>
                    </mxGeometry>
                </mxCell>
                <mxCell id="153" style="edgeStyle=none;html=1;exitX=0;exitY=1;exitDx=0;exitDy=0;endArrow=none;endFill=0;entryX=1;entryY=0.25;entryDx=0;entryDy=0;" edge="1" parent="1" source="149" target="13">
                    <mxGeometry relative="1" as="geometry">
                        <mxPoint x="1080" y="568" as="sourcePoint"/>
                        <mxPoint x="435" y="521" as="targetPoint"/>
                    </mxGeometry>
                </mxCell>
                <mxCell id="154" value="M" style="text;html=1;align=center;verticalAlign=middle;resizable=0;points=[];autosize=1;strokeColor=none;fillColor=none;" vertex="1" parent="1">
                    <mxGeometry x="145" y="590" width="30" height="30" as="geometry"/>
                </mxCell>
            </root>
        </mxGraphModel>
    </diagram>
</mxfile>